<?xml version="1.0" encoding="utf-8"?>
<!-- Generator: Adobe Illustrator 15.1.0, SVG Export Plug-In . SVG Version: 6.00 Build 0)  -->
<!DOCTYPE svg PUBLIC "-//W3C//DTD SVG 1.1//EN" "http://www.w3.org/Graphics/SVG/1.1/DTD/svg11.dtd">
<svg version="1.1" id="Layer_1" xmlns="http://www.w3.org/2000/svg" xmlns:xlink="http://www.w3.org/1999/xlink" x="0px" y="0px"
	 width="100px" height="100px" viewBox="0 0 100 100" enable-background="new 0 0 100 100" xml:space="preserve">
<path fill="#B2DECE" d="M50,0.226c-27.48,0-49.755,22.277-49.755,49.752c0,27.48,22.275,49.755,49.755,49.755
	c27.478,0,49.758-22.274,49.758-49.755C99.758,22.503,77.478,0.226,50,0.226z M60.075,36.789c-1.884,0-3.914,0-4.874,0
	c-0.967,0-1.94,1-1.94,1.744c0,0.744,0,4.967,0,4.967s6.018,0,6.802,0c-0.271,3.809-0.834,7.296-0.834,7.296h-6.003v19.938H44.28
	V50.796h-4.351v-7.269h4.351c0,0,0-4.855,0-5.941c0-1.087-0.219-8.362,9.165-8.362c1.259,0,4.118,0,6.631,0
	C60.075,32.381,60.075,35.801,60.075,36.789z"/>
</svg>
