<?xml version="1.0" encoding="utf-8"?>
<!-- Generator: Adobe Illustrator 15.1.0, SVG Export Plug-In . SVG Version: 6.00 Build 0)  -->
<!DOCTYPE svg PUBLIC "-//W3C//DTD SVG 1.1//EN" "http://www.w3.org/Graphics/SVG/1.1/DTD/svg11.dtd">
<svg version="1.1" id="Layer_1" xmlns="http://www.w3.org/2000/svg" xmlns:xlink="http://www.w3.org/1999/xlink" x="0px" y="0px"
	 width="100px" height="100px" viewBox="0 0 100 100" enable-background="new 0 0 100 100" xml:space="preserve">
<path fill="#B2DECE" d="M69.146,33.369c1.018-2.654-1.234-4.957-3.815-4.467c-1.432,0.271-2.184,1.266-2.42,1.862
	C61.164,35.167,67.652,37.268,69.146,33.369z"/>
<path fill="#B2DECE" d="M59.003,42.583c-3.124-1.268-7.439-1.903-11.541-1.582c-6.608,0.517-12.522,3.325-15.17,7.352
	c-2.434,3.701-1.367,8.223,0.931,10.889c7.859,9.119,29.302,7.974,34.249-2.513c0.969-2.054,0.893-5.021,0-6.98
	C65.854,46.203,62.522,44.012,59.003,42.583z M41.599,47.236c4.718-0.816,5.158,6.534,0.558,6.515
	C38.445,53.735,37.635,47.922,41.599,47.236z M40.482,58.591c3.985,2.527,13.881,2.937,17.962-0.094
	C55.692,64.577,43.689,64.54,40.482,58.591z M56.955,53.751c-4.048,0.118-4.575-5.845-0.744-6.515
	C60.939,46.41,61.31,53.624,56.955,53.751z"/>
<path fill="#B2DECE" d="M65.424,42.769c1.592,1.448,3.142,2.939,4.281,4.839C71.193,44.694,68.67,41.526,65.424,42.769z"/>
<path fill="#B2DECE" d="M33.595,42.769c-3.241-1.31-5.881,2.09-4.188,4.839C30.405,45.597,32.061,44.244,33.595,42.769z"/>
<path fill="#B2DECE" d="M49.858,0C22.321,0,0,22.322,0,49.853C0,77.39,22.321,99.708,49.858,99.708
	c27.534,0,49.86-22.318,49.86-49.855C99.718,22.322,77.392,0,49.858,0z M60.864,31.694c0.2-2.52,1.844-4.375,4.653-4.654
	c2.744-0.272,5.206,1.599,5.584,4.095c0.609,4.03-2.49,6.125-5.026,6.143C63.045,37.299,60.615,34.816,60.864,31.694z
	 M63.656,64.732c-7.774,4.786-20.429,4.841-28.292,0c-3.911-2.406-7.745-6.134-7.446-12.284c0.021-0.417,0.248-1.021,0.187-1.396
	c-0.085-0.523-1.097-1.602-1.396-2.233c-1.462-3.086-0.384-6.891,2.14-8.376c2.1-1.235,5.747-1.031,7.539,0.651
	c3.148-1.66,6.828-2.789,11.354-3.071c0.12-5.581,1.125-11.421,6.329-11.447c3.424-0.017,4.387,2.455,6.607,3.909
	c-0.23,1.041-0.153,2.391-0.372,3.443c-3.15,0.503-3.731-4.116-6.515-3.63c-2.202,0.385-2.244,5.05-2.42,7.632
	c4.258,0.519,8.17,1.384,11.168,3.164c4.321-3.29,10.517-0.629,10.517,4.747c0,2.369-1.026,3.688-2.141,5.119
	C71.98,57.849,67.858,62.146,63.656,64.732z"/>
</svg>
