<?xml version="1.0" encoding="utf-8"?>
<!-- Generator: Adobe Illustrator 15.1.0, SVG Export Plug-In . SVG Version: 6.00 Build 0)  -->
<!DOCTYPE svg PUBLIC "-//W3C//DTD SVG 1.1//EN" "http://www.w3.org/Graphics/SVG/1.1/DTD/svg11.dtd">
<svg version="1.1" id="Layer_1" xmlns="http://www.w3.org/2000/svg" xmlns:xlink="http://www.w3.org/1999/xlink" x="0px" y="0px"
	 width="100px" height="100px" viewBox="0 0 100 100" enable-background="new 0 0 100 100" xml:space="preserve">
<path fill="#B2DECE" d="M49.858,0C22.321,0,0,22.322,0,49.853C0,77.39,22.321,99.708,49.858,99.708
	c27.534,0,49.86-22.318,49.86-49.855C99.718,22.322,77.392,0,49.858,0z M58.36,67.6c-1.889,0.892-3.605,1.519-5.143,1.871
	c-1.531,0.365-3.189,0.541-4.978,0.541c-2.022,0-3.813-0.253-5.369-0.766c-1.556-0.512-2.882-1.238-3.98-2.187
	c-1.096-0.944-1.859-1.956-2.283-3.02c-0.429-1.067-0.637-2.61-0.637-4.64V43.867h-4.896v-6.266
	c1.738-0.569,3.229-1.377,4.473-2.435c1.237-1.054,2.236-2.32,2.981-3.805c0.752-1.475,1.271-3.359,1.553-5.641h6.303v11.196h10.507
	v6.949H46.385v11.36c0,2.564,0.133,4.217,0.402,4.939c0.272,0.733,0.782,1.318,1.521,1.752c0.977,0.59,2.097,0.884,3.365,0.884
	c2.243,0,4.47-0.735,6.687-2.19V67.6z M67.47,66.784h-0.059c-2.892,0-4.767-1.961-4.767-4.434c0-2.529,1.93-4.447,4.884-4.447
	c2.947,0,4.764,1.911,4.819,4.442C72.348,64.823,70.476,66.784,67.47,66.784z"/>
</svg>
