<?xml version="1.0" encoding="utf-8"?>
<!-- Generator: Adobe Illustrator 15.1.0, SVG Export Plug-In . SVG Version: 6.00 Build 0)  -->
<!DOCTYPE svg PUBLIC "-//W3C//DTD SVG 1.1//EN" "http://www.w3.org/Graphics/SVG/1.1/DTD/svg11.dtd">
<svg version="1.1" id="Layer_1" xmlns="http://www.w3.org/2000/svg" xmlns:xlink="http://www.w3.org/1999/xlink" x="0px" y="0px"
	 width="100px" height="100px" viewBox="0 0 100 100" enable-background="new 0 0 100 100" xml:space="preserve">
<path fill="#B2DECE" d="M49.886,0.235C22.335,0.235,0,22.57,0,50.116C0,77.668,22.335,100,49.886,100
	c27.55,0,49.888-22.332,49.888-49.884C99.773,22.57,77.436,0.235,49.886,0.235z M69.185,40.222c0.019,0.427,0.031,0.848,0.031,1.281
	c0,13.159-10.018,28.336-28.333,28.336c-5.623,0-10.856-1.646-15.26-4.475c0.776,0.086,1.569,0.136,2.373,0.136
	c4.664,0,8.957-1.591,12.367-4.259c-4.358-0.086-8.034-2.958-9.303-6.919c0.607,0.117,1.234,0.179,1.874,0.179
	c0.909,0,1.787-0.117,2.622-0.353c-4.554-0.91-7.987-4.933-7.987-9.761c0-0.037,0-0.086,0.003-0.118
	c1.342,0.736,2.875,1.188,4.509,1.245c-2.67-1.789-4.43-4.841-4.43-8.288c0-1.826,0.49-3.535,1.351-5.007
	c4.908,6.022,12.245,9.99,20.519,10.405c-0.172-0.73-0.256-1.492-0.256-2.266c0-5.502,4.458-9.958,9.958-9.958
	c2.862,0,5.449,1.201,7.263,3.144c2.272-0.445,4.401-1.274,6.323-2.426c-0.743,2.334-2.318,4.29-4.38,5.521
	c2.019-0.248,3.937-0.78,5.72-1.572C72.817,37.065,71.131,38.817,69.185,40.222z"/>
</svg>
