<?xml version="1.0" encoding="utf-8"?>
<!-- Generator: Adobe Illustrator 15.1.0, SVG Export Plug-In . SVG Version: 6.00 Build 0)  -->
<!DOCTYPE svg PUBLIC "-//W3C//DTD SVG 1.1//EN" "http://www.w3.org/Graphics/SVG/1.1/DTD/svg11.dtd">
<svg version="1.1" id="Layer_1" xmlns="http://www.w3.org/2000/svg" xmlns:xlink="http://www.w3.org/1999/xlink" x="0px" y="0px"
	 width="100px" height="100px" viewBox="0 0 100 100" enable-background="new 0 0 100 100" xml:space="preserve">
<path fill="#B2DECE" d="M56.395,57.043c-0.454,0-0.903,0.124-1.348,0.373c-0.438,0.25-0.857,0.613-1.25,1.099v-6.861h-2.949v21.303
	h2.949v-1.204c0.384,0.479,0.799,0.83,1.244,1.059c0.45,0.229,0.956,0.345,1.53,0.345c0.868,0,1.521-0.295,1.987-0.886
	c0.459-0.592,0.682-1.45,0.682-2.565v-8.722c0-1.283-0.241-2.259-0.725-2.936C58.026,57.382,57.318,57.043,56.395,57.043z
	 M56.233,69.276c0,0.496-0.084,0.86-0.251,1.083c-0.167,0.217-0.434,0.331-0.79,0.331c-0.244,0-0.483-0.058-0.703-0.176
	c-0.223-0.111-0.455-0.297-0.692-0.554V60.17c0.197-0.218,0.397-0.369,0.599-0.48c0.208-0.1,0.409-0.151,0.62-0.151
	c0.394,0,0.695,0.142,0.906,0.408c0.209,0.283,0.312,0.682,0.312,1.213V69.276z"/>
<polygon fill="#B2DECE" points="39.695,51.653 29.593,51.653 29.593,54.747 32.996,54.747 32.996,72.956 36.287,72.956 
	36.287,54.747 39.695,54.747 "/>
<path fill="#B2DECE" d="M48.32,40.037c0.394,0,0.714-0.12,0.944-0.366c0.234-0.242,0.349-0.563,0.349-0.991v-8.558
	c0-0.344-0.121-0.625-0.356-0.833c-0.241-0.21-0.55-0.313-0.937-0.313c-0.356,0-0.645,0.103-0.868,0.313
	c-0.22,0.208-0.338,0.49-0.338,0.833v8.558c0,0.434,0.107,0.771,0.316,1.007C47.637,39.917,47.939,40.037,48.32,40.037z"/>
<path fill="#B2DECE" d="M45.072,69.173c-0.271,0.345-0.572,0.623-0.903,0.84c-0.327,0.228-0.602,0.333-0.813,0.333
	c-0.275,0-0.469-0.082-0.59-0.249c-0.129-0.163-0.189-0.44-0.189-0.811v-12.04h-2.92V70.38c0,0.932,0.168,1.635,0.515,2.106
	c0.345,0.464,0.851,0.693,1.526,0.693c0.546,0,1.112-0.164,1.698-0.496c0.58-0.331,1.14-0.82,1.678-1.462v1.734h2.924v-15.71h-2.924
	V69.173z"/>
<path fill="#B2DECE" d="M49.943,0C22.36,0,0,22.361,0,49.939c0,27.585,22.36,49.943,49.943,49.943
	c27.581,0,49.946-22.357,49.946-49.943C99.89,22.361,77.524,0,49.943,0z M55.071,26.643h2.922v12.049
	c0,0.375,0.061,0.642,0.185,0.809c0.126,0.17,0.317,0.248,0.598,0.248c0.209,0,0.483-0.109,0.816-0.329
	c0.324-0.216,0.62-0.499,0.896-0.843V26.643h2.925v15.718h-2.925v-1.732c-0.532,0.638-1.094,1.127-1.676,1.459
	c-0.582,0.331-1.152,0.499-1.699,0.499c-0.676,0-1.185-0.232-1.527-0.697c-0.343-0.467-0.514-1.168-0.514-2.107V26.643z
	 M48.462,26.25c1.208,0,2.204,0.384,2.975,1.14s1.155,1.738,1.155,2.934v8.118c0,1.354-0.38,2.404-1.134,3.166
	c-0.761,0.768-1.802,1.149-3.126,1.149c-1.28,0-2.304-0.396-3.067-1.184c-0.769-0.793-1.151-1.85-1.151-3.189l-0.004-8.148
	c0-1.214,0.395-2.188,1.187-2.903C46.077,26.611,47.137,26.25,48.462,26.25z M36.539,21.056l2.136,8.518h0.209l2.032-8.518h3.345
	l-3.828,12.469v8.836h-3.291v-8.439l-3.924-12.866H36.539z M73.702,71.63c0,3.794-3.113,6.872-6.956,6.872
	c-5.481,0.233-11.088,0.329-16.803,0.323c-5.717,0.006-11.325-0.09-16.806-0.323c-3.834,0-6.952-3.078-6.952-6.872
	c-0.23-3.011-0.33-6.01-0.321-9.019c-0.008-3.007,0.091-6.017,0.321-9.021c0-3.793,3.118-6.87,6.952-6.87
	c5.209-0.217,10.531-0.325,15.954-0.325c0.288,0,0.568,0,0.853,0c0.281,0,0.569,0,0.849,0c5.424,0,10.746,0.108,15.954,0.325
	c3.843,0,6.956,3.077,6.956,6.87c0.229,3.005,0.328,6.015,0.321,9.021C74.03,65.62,73.931,68.619,73.702,71.63z"/>
<path fill="#B2DECE" d="M65.888,56.846c-1.313,0-2.38,0.425-3.204,1.285c-0.823,0.858-1.238,1.967-1.238,3.333v7.06
	c0,1.508,0.377,2.698,1.128,3.566c0.75,0.86,1.784,1.295,3.092,1.295c1.45,0,2.547-0.408,3.277-1.225
	c0.738-0.811,1.097-2.023,1.097-3.637v-1.183h-3.005v1.093c0,0.922-0.093,1.523-0.288,1.791c-0.192,0.267-0.535,0.408-1.02,0.408
	c-0.461,0-0.786-0.162-0.979-0.48c-0.201-0.32-0.292-0.892-0.292-1.719v-2.969h5.583v-4.001c0-1.493-0.358-2.633-1.071-3.429
	C68.249,57.246,67.22,56.846,65.888,56.846z M67.034,63.033h-2.578V61.44c0-0.659,0.1-1.132,0.305-1.416
	c0.198-0.289,0.532-0.424,0.997-0.424c0.45,0,0.769,0.135,0.973,0.424c0.205,0.284,0.304,0.757,0.304,1.416V63.033z"/>
</svg>
