<?xml version="1.0" encoding="utf-8"?>
<!-- Generator: Adobe Illustrator 15.1.0, SVG Export Plug-In . SVG Version: 6.00 Build 0)  -->
<!DOCTYPE svg PUBLIC "-//W3C//DTD SVG 1.1//EN" "http://www.w3.org/Graphics/SVG/1.1/DTD/svg11.dtd">
<svg version="1.1" id="Layer_1" xmlns="http://www.w3.org/2000/svg" xmlns:xlink="http://www.w3.org/1999/xlink" x="0px" y="0px"
	 width="100px" height="100px" viewBox="0 0 100 100" enable-background="new 0 0 100 100" xml:space="preserve">
<path fill="#EE6D58" d="M56.395,57.043c-0.453,0-0.902,0.124-1.348,0.373c-0.438,0.25-0.857,0.613-1.25,1.1v-6.861h-2.949v21.303
	h2.949v-1.204c0.385,0.479,0.799,0.83,1.244,1.06c0.45,0.229,0.956,0.345,1.529,0.345c0.869,0,1.521-0.296,1.988-0.886
	c0.459-0.592,0.682-1.451,0.682-2.565v-8.722c0-1.283-0.241-2.26-0.725-2.937C58.025,57.382,57.318,57.043,56.395,57.043z
	 M56.232,69.275c0,0.496-0.084,0.86-0.25,1.084c-0.168,0.217-0.435,0.33-0.791,0.33c-0.243,0-0.482-0.058-0.703-0.176
	c-0.223-0.111-0.454-0.297-0.691-0.554v-9.79c0.197-0.218,0.396-0.369,0.6-0.48c0.207-0.1,0.408-0.15,0.619-0.15
	c0.395,0,0.695,0.143,0.906,0.408c0.209,0.283,0.312,0.682,0.312,1.213v8.115H56.232z"/>
<polygon fill="#EE6D58" points="39.695,51.652 29.593,51.652 29.593,54.747 32.996,54.747 32.996,72.956 36.287,72.956 
	36.287,54.747 39.695,54.747 "/>
<path fill="#EE6D58" d="M48.32,40.037c0.394,0,0.714-0.12,0.944-0.366c0.234-0.242,0.349-0.563,0.349-0.991v-8.558
	c0-0.344-0.121-0.625-0.356-0.833c-0.241-0.21-0.55-0.313-0.937-0.313c-0.356,0-0.645,0.103-0.868,0.313
	c-0.22,0.208-0.338,0.49-0.338,0.833v8.558c0,0.434,0.107,0.771,0.316,1.007C47.637,39.917,47.939,40.037,48.32,40.037z"/>
<path fill="#EE6D58" d="M45.072,69.173c-0.271,0.345-0.572,0.623-0.903,0.841c-0.327,0.228-0.602,0.332-0.813,0.332
	c-0.275,0-0.469-0.082-0.59-0.248c-0.129-0.164-0.189-0.44-0.189-0.812v-12.04h-2.92V70.38c0,0.933,0.168,1.636,0.515,2.106
	c0.345,0.464,0.851,0.693,1.526,0.693c0.546,0,1.112-0.164,1.698-0.496c0.58-0.332,1.14-0.82,1.678-1.463v1.734h2.924v-15.71h-2.924
	v11.928H45.072z"/>
<path fill="#EE6D58" d="M49.943,0C22.36,0,0,22.361,0,49.939c0,27.584,22.36,49.943,49.943,49.943
	c27.581,0,49.946-22.356,49.946-49.943C99.891,22.361,77.523,0,49.943,0z M55.07,26.643h2.923v12.049
	c0,0.375,0.062,0.642,0.185,0.809c0.127,0.17,0.317,0.248,0.598,0.248c0.209,0,0.483-0.109,0.816-0.329
	c0.324-0.216,0.62-0.499,0.896-0.843V26.643h2.925v15.718h-2.925v-1.732c-0.532,0.638-1.094,1.127-1.676,1.459
	c-0.582,0.331-1.152,0.499-1.699,0.499c-0.676,0-1.186-0.232-1.527-0.697c-0.343-0.467-0.514-1.168-0.514-2.107v-13.14H55.07z
	 M48.462,26.25c1.208,0,2.204,0.384,2.976,1.14c0.771,0.756,1.154,1.738,1.154,2.934v8.118c0,1.354-0.38,2.404-1.134,3.166
	c-0.761,0.768-1.802,1.149-3.126,1.149c-1.28,0-2.304-0.396-3.067-1.184c-0.769-0.793-1.151-1.85-1.151-3.189l-0.004-8.148
	c0-1.214,0.395-2.188,1.187-2.903C46.077,26.611,47.137,26.25,48.462,26.25z M36.539,21.056l2.136,8.518h0.209l2.032-8.518h3.345
	l-3.828,12.469v8.836h-3.291v-8.439l-3.924-12.866H36.539z M73.702,71.63c0,3.794-3.113,6.872-6.956,6.872
	c-5.48,0.232-11.088,0.329-16.803,0.323c-5.717,0.006-11.325-0.091-16.806-0.323c-3.834,0-6.952-3.078-6.952-6.872
	c-0.23-3.011-0.33-6.01-0.321-9.019c-0.008-3.008,0.091-6.018,0.321-9.021c0-3.793,3.118-6.87,6.952-6.87
	c5.209-0.217,10.531-0.325,15.954-0.325c0.288,0,0.568,0,0.853,0c0.281,0,0.57,0,0.849,0c5.424,0,10.746,0.108,15.954,0.325
	c3.843,0,6.956,3.077,6.956,6.87c0.229,3.006,0.328,6.016,0.32,9.021C74.029,65.62,73.932,68.619,73.702,71.63z"/>
<path fill="#EE6D58" d="M65.889,56.846c-1.313,0-2.381,0.426-3.205,1.285c-0.822,0.858-1.238,1.967-1.238,3.333v7.06
	c0,1.509,0.378,2.699,1.129,3.566c0.75,0.86,1.783,1.295,3.092,1.295c1.45,0,2.547-0.408,3.277-1.225
	c0.738-0.811,1.097-2.023,1.097-3.637V67.34h-3.005v1.094c0,0.922-0.094,1.522-0.288,1.791c-0.192,0.267-0.535,0.407-1.021,0.407
	c-0.461,0-0.785-0.161-0.979-0.479c-0.201-0.32-0.292-0.893-0.292-1.719v-2.97h5.583v-4.001c0-1.492-0.357-2.633-1.071-3.429
	C68.249,57.246,67.221,56.846,65.889,56.846z M67.034,63.033h-2.578v-1.594c0-0.658,0.101-1.131,0.305-1.416
	c0.198-0.289,0.532-0.424,0.997-0.424c0.45,0,0.77,0.135,0.973,0.424c0.205,0.285,0.305,0.758,0.305,1.416L67.034,63.033
	L67.034,63.033z"/>
</svg>
